<svg width="100" height="100" viewBox="0 0 100 100" fill="none" xmlns="http://www.w3.org/2000/svg">
<circle cx="50" cy="50" r="50" fill="#FFEEA6"/>
<path d="M50.1629 40C49.8979 40.0002 49.5883 40.1929 49.4713 40.4305L47.9523 43.5147L30.4629 43.4401C29.8485 43.4298 29.8448 44.3551 30.4592 44.3492L47.5057 44.422L45.042 49.4247H30.4743C29.8597 49.4161 29.8597 50.3425 30.4743 50.3338H44.5937L42.1319 55.3337H30.461C29.8463 55.3251 29.8463 56.2515 30.461 56.2428H41.6835L40.0456 59.5694C39.9285 59.807 40.0483 59.9997 40.3128 60H59.8379C60.1029 59.9998 60.4125 59.807 60.5295 59.5694L69.9551 40.4305C70.0721 40.193 69.9524 40.0003 69.6879 40H50.1629Z" fill="#B89500"/>
</svg>
