<svg width="100" height="100" viewBox="0 0 100 100" fill="none" xmlns="http://www.w3.org/2000/svg">
<circle cx="50" cy="50" r="50" fill="#FCEDEE"/>
<path d="M55.3259 55.548L44.2397 58.8253C44.7911 59.8908 45.6427 60.7552 46.6651 61.3247V67.2437H44.7767C44.03 67.2437 43.4283 67.8616 43.4283 68.6219C43.4283 69.3821 44.0314 70 44.7767 70H55.9046C56.6514 70 57.2531 69.3821 57.2531 68.6219C57.2531 67.8616 56.6499 67.2437 55.9046 67.2437H54.0162V59.7939C54.0162 59.7954 55.4264 58.3894 55.3259 55.548ZM51.3179 67.2437H49.3635L49.3462 62.0746C50.2667 62.0512 51.3179 61.7151 51.3179 61.7151V67.2437ZM34.5004 45.3301L38.7497 43.1213L43.8649 56.0675L39.1776 57.453C39.1776 57.453 37.8134 57.9799 37.2864 55.9575L35.0203 56.8703C35.0203 56.8703 33.9102 57.3547 33.2698 56.0925L31.0942 50.442C30.8213 49.7346 31.1617 48.9347 31.8538 48.6544L34.1156 47.7415C34.117 47.74 33.2224 45.995 34.5004 45.3301ZM53.5509 33.0987L58.8313 30.1869C60.0619 29.5088 60.7254 30.8943 60.7254 30.8943L67.9573 49.6348C68.3709 51.2066 67.0411 51.4738 67.0411 51.4738L61.2323 53.0192C59.8422 53.3891 59.364 51.484 59.364 51.484L46.4698 55.297L41.1651 41.8665L53.2321 35.5908C53.2321 35.5893 52.2341 33.8252 53.5509 33.0987Z" fill="#B85A60"/>
</svg>
