<svg width="100" height="100" viewBox="0 0 100 100" fill="none" xmlns="http://www.w3.org/2000/svg">
<circle cx="50" cy="50" r="50" fill="#DEFEEA"/>
<path d="M49.9998 38.3871C43.7098 38.3871 38.5933 43.5988 38.5933 50.0059C38.5933 56.413 43.7103 61.6242 49.9998 61.6242C56.2893 61.6242 61.4063 56.413 61.4063 50.0059C61.4063 43.5988 56.2893 38.3871 49.9998 38.3871ZM56.1393 50.7994L49.2203 50.7984L49.2208 40.6566H50.7793L50.7788 49.2114L56.1393 49.2119V50.7994Z" fill="#0F642F"/>
<path d="M69.985 49.3211C69.982 49.2472 69.976 49.1709 69.973 49.096C69.964 48.9345 69.954 48.7721 69.9415 48.6055C69.9345 48.5159 69.9255 48.4252 69.9175 48.3341C69.9025 48.1757 69.886 48.0152 69.8675 47.8523C69.857 47.7565 69.845 47.6602 69.833 47.563C69.824 47.4968 69.8145 47.428 69.805 47.3608L63.6065 45.5003L63.607 45.4998H63.6065L67.5565 40.2748C66.715 38.7 65.6965 37.2668 64.5225 36.0027L58.41 38.2177L58.588 31.6247C57.0285 30.8684 55.373 30.3229 53.6555 30L50 35.4318L46.354 30.0112C46.119 30.055 45.8845 30.1008 45.6515 30.1538C45.501 30.1874 45.349 30.217 45.1995 30.2541C44.7355 30.3703 44.276 30.4986 43.8235 30.6478C43.806 30.654 43.7885 30.6611 43.771 30.6672C43.334 30.8123 42.9035 30.9748 42.4785 31.151C42.3315 31.2116 42.188 31.2799 42.043 31.3441C41.831 31.4383 41.6215 31.5376 41.413 31.639L41.591 38.2167H41.5905V38.2172L35.8155 36.1239L35.4925 36.0068C35.3395 36.1713 35.1885 36.3368 35.041 36.5069C34.931 36.6332 34.818 36.7565 34.7115 36.8863C34.4365 37.2194 34.172 37.5632 33.918 37.9162C33.878 37.9717 33.8365 38.0262 33.797 38.0827C33.5345 38.455 33.2845 38.8385 33.0455 39.2307C32.9585 39.3738 32.8785 39.522 32.7945 39.6677C32.6775 39.8704 32.565 40.0772 32.454 40.2844L36.3945 45.4993L36.394 45.4998L30.1945 47.3608C30.1855 47.4265 30.1755 47.4937 30.1675 47.5589C30.155 47.6602 30.143 47.7606 30.1315 47.8594C30.113 48.0188 30.0975 48.1762 30.0835 48.331C30.0745 48.4247 30.066 48.5189 30.0585 48.6101C30.0455 48.7741 30.0365 48.9345 30.0275 49.0944C30.0235 49.1708 30.018 49.2483 30.015 49.3236C30.0055 49.5554 30 49.7835 30 50.0061C30 50.2287 30.0055 50.4558 30.015 50.6876C30.018 50.7619 30.024 50.8393 30.0275 50.9147C30.036 51.0746 30.0455 51.2361 30.0585 51.4006C30.066 51.4918 30.0745 51.5845 30.083 51.6777C30.0975 51.8325 30.113 51.9894 30.131 52.1498C30.1425 52.2501 30.1545 52.3505 30.1675 52.4518C30.1755 52.516 30.1855 52.5832 30.1945 52.6484L36.393 54.5094L32.453 59.7232C32.5695 59.9427 32.6875 60.1592 32.811 60.372C32.887 60.5045 32.96 60.6394 33.039 60.7698C33.293 61.1864 33.557 61.5944 33.837 61.9896C33.8425 61.9972 33.848 62.0029 33.8535 62.0105C34.129 62.3981 34.419 62.7709 34.719 63.1345C34.814 63.2507 34.9155 63.3596 35.0125 63.4727C35.169 63.6535 35.33 63.8292 35.4925 64.0039L41.59 61.794H41.591L41.413 68.3723C41.638 68.4807 41.8625 68.5887 42.091 68.6885C42.2155 68.743 42.338 68.8026 42.4635 68.8551C43.353 69.2228 44.269 69.5243 45.206 69.7581C45.349 69.7942 45.4935 69.8223 45.6375 69.8538C45.874 69.9073 46.1125 69.9542 46.3515 69.9985L49.306 65.6072L50 64.5769L51.5565 66.8912L53.6475 70C53.882 69.9567 54.1155 69.9109 54.347 69.8584C54.4975 69.8248 54.6495 69.7958 54.8 69.7586C55.2655 69.642 55.727 69.5126 56.182 69.3629C56.1835 69.3618 56.185 69.3618 56.186 69.3608C56.6395 69.2116 57.0855 69.0425 57.527 68.8597C57.6655 68.8031 57.801 68.7379 57.9385 68.6768C58.157 68.5811 58.3725 68.4772 58.587 68.3728L58.41 61.7956L64.508 64.0055C64.667 63.8338 64.8255 63.6612 64.978 63.4839C65.079 63.3673 65.1835 63.2542 65.282 63.134C65.5785 62.7745 65.865 62.4042 66.138 62.0207C66.146 62.0105 66.1545 62.0013 66.162 61.9896C66.442 61.5969 66.7055 61.189 66.959 60.7719C67.0405 60.6384 67.115 60.5004 67.1935 60.3649C67.316 60.1541 67.433 59.9402 67.548 59.7237L63.606 54.5089L69.8045 52.6479C69.8135 52.5827 69.823 52.5155 69.8315 52.4503C69.8445 52.351 69.8565 52.2517 69.8675 52.1534C69.8855 51.9924 69.9015 51.835 69.9165 51.6792C69.925 51.586 69.934 51.4943 69.941 51.4031C69.9535 51.2376 69.9635 51.0762 69.9725 50.9152C69.9765 50.8409 69.9825 50.7645 69.985 50.6901C69.995 50.4579 70 50.2292 70 50.0056C70 49.782 69.9945 49.5533 69.985 49.3211ZM50 63.2114C42.851 63.2114 37.035 57.2877 37.035 50.0056C37.035 42.7235 42.851 36.7987 50 36.7987C57.149 36.7987 62.9655 42.7235 62.9655 50.0056C62.9655 57.2882 57.149 63.2114 50 63.2114Z" fill="#0F642F"/>
</svg>
