<svg width="143" height="22" viewBox="0 0 143 22" fill="none" xmlns="http://www.w3.org/2000/svg">
<path d="M0.396484 17V1.35938H5.20898C6.58398 1.35938 7.81217 1.6709 8.89355 2.29395C9.9821 2.90983 10.8307 3.79069 11.4395 4.93652C12.0482 6.0752 12.3525 7.37142 12.3525 8.8252V9.54492C12.3525 10.9987 12.0518 12.2913 11.4502 13.4229C10.8558 14.5544 10.0143 15.4316 8.92578 16.0547C7.83724 16.6777 6.60905 16.9928 5.24121 17H0.396484ZM3.61914 3.96973V14.4111H5.17676C6.43717 14.4111 7.40039 13.9993 8.06641 13.1758C8.73242 12.3522 9.07259 11.1742 9.08691 9.6416V8.81445C9.08691 7.22461 8.75749 6.02148 8.09863 5.20508C7.43978 4.38151 6.47656 3.96973 5.20898 3.96973H3.61914ZM17.7773 17H14.6621V5.37695H17.7773V17ZM14.4795 2.36914C14.4795 1.90365 14.6335 1.52051 14.9414 1.21973C15.2565 0.918945 15.6826 0.768555 16.2197 0.768555C16.7497 0.768555 17.1722 0.918945 17.4873 1.21973C17.8024 1.52051 17.96 1.90365 17.96 2.36914C17.96 2.8418 17.7988 3.22852 17.4766 3.5293C17.1615 3.83008 16.7425 3.98047 16.2197 3.98047C15.6969 3.98047 15.2744 3.83008 14.9521 3.5293C14.637 3.22852 14.4795 2.8418 14.4795 2.36914ZM19.8936 11.1025C19.8936 9.31934 20.3161 7.88346 21.1611 6.79492C22.0133 5.70638 23.1592 5.16211 24.5986 5.16211C25.8734 5.16211 26.8652 5.59896 27.5742 6.47266L27.7031 5.37695H30.5176V16.6133C30.5176 17.6302 30.2848 18.5146 29.8193 19.2666C29.361 20.0186 28.7129 20.5915 27.875 20.9854C27.0371 21.3792 26.056 21.5762 24.9316 21.5762C24.0794 21.5762 23.2487 21.4043 22.4395 21.0605C21.6302 20.724 21.0179 20.2871 20.6025 19.75L21.9775 17.8594C22.751 18.7259 23.6891 19.1592 24.792 19.1592C25.6156 19.1592 26.2565 18.9372 26.7148 18.4932C27.1732 18.0563 27.4023 17.4333 27.4023 16.624V16.001C26.6862 16.8102 25.7445 17.2148 24.5771 17.2148C23.1807 17.2148 22.0492 16.6706 21.1826 15.582C20.3232 14.4863 19.8936 13.0361 19.8936 11.2314V11.1025ZM22.998 11.3281C22.998 12.3809 23.2093 13.208 23.6318 13.8096C24.0544 14.404 24.6344 14.7012 25.3721 14.7012C26.3174 14.7012 26.9941 14.3467 27.4023 13.6377V8.75C26.987 8.04102 26.3174 7.68652 25.3936 7.68652C24.6488 7.68652 24.0615 7.99089 23.6318 8.59961C23.2093 9.20833 22.998 10.1178 22.998 11.3281ZM36.1895 17H33.0742V5.37695H36.1895V17ZM32.8916 2.36914C32.8916 1.90365 33.0456 1.52051 33.3535 1.21973C33.6686 0.918945 34.0947 0.768555 34.6318 0.768555C35.1618 0.768555 35.5843 0.918945 35.8994 1.21973C36.2145 1.52051 36.3721 1.90365 36.3721 2.36914C36.3721 2.8418 36.2109 3.22852 35.8887 3.5293C35.5736 3.83008 35.1546 3.98047 34.6318 3.98047C34.109 3.98047 33.6865 3.83008 33.3643 3.5293C33.0492 3.22852 32.8916 2.8418 32.8916 2.36914ZM42.4736 2.51953V5.37695H44.4609V7.6543H42.4736V13.4551C42.4736 13.8848 42.556 14.1927 42.7207 14.3789C42.8854 14.5651 43.2005 14.6582 43.666 14.6582C44.0098 14.6582 44.3141 14.6331 44.5791 14.583V16.9355C43.9704 17.1217 43.3438 17.2148 42.6992 17.2148C40.5221 17.2148 39.4121 16.1156 39.3691 13.917V7.6543H37.6719V5.37695H39.3691V2.51953H42.4736ZM52.9258 17C52.7826 16.7207 52.6787 16.3734 52.6143 15.958C51.8623 16.7959 50.8848 17.2148 49.6816 17.2148C48.543 17.2148 47.5977 16.8854 46.8457 16.2266C46.1009 15.5677 45.7285 14.737 45.7285 13.7344C45.7285 12.5026 46.1833 11.5573 47.0928 10.8984C48.0094 10.2396 49.3307 9.90658 51.0566 9.89941H52.4854V9.2334C52.4854 8.69629 52.3457 8.2666 52.0664 7.94434C51.7943 7.62207 51.361 7.46094 50.7666 7.46094C50.2438 7.46094 49.832 7.58626 49.5312 7.83691C49.2376 8.08757 49.0908 8.43132 49.0908 8.86816H45.9863C45.9863 8.19499 46.194 7.57194 46.6094 6.99902C47.0247 6.42611 47.612 5.97852 48.3711 5.65625C49.1302 5.32682 49.9824 5.16211 50.9277 5.16211C52.36 5.16211 53.4951 5.52376 54.333 6.24707C55.1781 6.96322 55.6006 7.97298 55.6006 9.27637V14.3145C55.6077 15.4173 55.7617 16.2516 56.0625 16.8174V17H52.9258ZM50.3584 14.8408C50.8167 14.8408 51.2393 14.7406 51.626 14.54C52.0127 14.3324 52.2992 14.0566 52.4854 13.7129V11.7148H51.3252C49.7712 11.7148 48.944 12.252 48.8438 13.3262L48.833 13.5088C48.833 13.8955 48.9691 14.2142 49.2412 14.4648C49.5133 14.7155 49.8857 14.8408 50.3584 14.8408ZM61.2617 17H58.1465V0.5H61.2617V17Z" fill="#FFE600"/>
<path d="M77.6221 12.8965C77.6221 12.2878 77.4072 11.8223 76.9775 11.5C76.5479 11.1706 75.7744 10.8268 74.6572 10.4688C73.54 10.1035 72.6556 9.74544 72.0039 9.39453C70.2279 8.4349 69.3398 7.14225 69.3398 5.5166C69.3398 4.67155 69.5762 3.9196 70.0488 3.26074C70.5286 2.59473 71.2126 2.07552 72.1006 1.70312C72.9958 1.33073 73.9984 1.14453 75.1084 1.14453C76.2256 1.14453 77.221 1.34863 78.0947 1.75684C78.9684 2.15788 79.6452 2.72721 80.125 3.46484C80.612 4.20247 80.8555 5.04036 80.8555 5.97852H77.6328C77.6328 5.26237 77.4072 4.70736 76.9561 4.31348C76.5049 3.91243 75.8711 3.71191 75.0547 3.71191C74.2669 3.71191 73.6546 3.88021 73.2178 4.2168C72.7809 4.54622 72.5625 4.98307 72.5625 5.52734C72.5625 6.03581 72.8167 6.46191 73.3252 6.80566C73.8408 7.14941 74.5964 7.47168 75.5918 7.77246C77.4251 8.32389 78.7607 9.00781 79.5986 9.82422C80.4365 10.6406 80.8555 11.6576 80.8555 12.875C80.8555 14.2285 80.3434 15.292 79.3193 16.0654C78.2952 16.8317 76.9167 17.2148 75.1836 17.2148C73.9805 17.2148 72.8848 16.9964 71.8965 16.5596C70.9082 16.1156 70.1527 15.5104 69.6299 14.7441C69.1143 13.9779 68.8564 13.0898 68.8564 12.0801H72.0898C72.0898 13.806 73.1211 14.6689 75.1836 14.6689C75.9499 14.6689 76.5479 14.515 76.9775 14.207C77.4072 13.8919 77.6221 13.4551 77.6221 12.8965ZM86.5596 2.51953V5.37695H88.5469V7.6543H86.5596V13.4551C86.5596 13.8848 86.6419 14.1927 86.8066 14.3789C86.9714 14.5651 87.2865 14.6582 87.752 14.6582C88.0957 14.6582 88.4001 14.6331 88.665 14.583V16.9355C88.0563 17.1217 87.4297 17.2148 86.7852 17.2148C84.6081 17.2148 83.498 16.1156 83.4551 13.917V7.6543H81.7578V5.37695H83.4551V2.51953H86.5596ZM97.2373 15.8184C96.471 16.7493 95.4111 17.2148 94.0576 17.2148C92.8115 17.2148 91.859 16.8568 91.2002 16.1406C90.5485 15.4245 90.2155 14.3753 90.2012 12.9932V5.37695H93.3057V12.8857C93.3057 14.096 93.8571 14.7012 94.96 14.7012C96.0127 14.7012 96.736 14.3359 97.1299 13.6055V5.37695H100.245V17H97.3232L97.2373 15.8184ZM102.104 11.1025C102.104 9.29069 102.508 7.84766 103.317 6.77344C104.134 5.69922 105.247 5.16211 106.658 5.16211C107.79 5.16211 108.724 5.58464 109.462 6.42969V0.5H112.577V17H109.773L109.623 15.7646C108.85 16.7314 107.854 17.2148 106.637 17.2148C105.269 17.2148 104.17 16.6777 103.339 15.6035C102.515 14.5221 102.104 13.0218 102.104 11.1025ZM105.208 11.3281C105.208 12.4167 105.398 13.251 105.777 13.8311C106.157 14.4111 106.708 14.7012 107.432 14.7012C108.391 14.7012 109.068 14.2965 109.462 13.4873V8.90039C109.075 8.09115 108.406 7.68652 107.453 7.68652C105.956 7.68652 105.208 8.90039 105.208 11.3281ZM118.26 17H115.145V5.37695H118.26V17ZM114.962 2.36914C114.962 1.90365 115.116 1.52051 115.424 1.21973C115.739 0.918945 116.165 0.768555 116.702 0.768555C117.232 0.768555 117.655 0.918945 117.97 1.21973C118.285 1.52051 118.442 1.90365 118.442 2.36914C118.442 2.8418 118.281 3.22852 117.959 3.5293C117.644 3.83008 117.225 3.98047 116.702 3.98047C116.179 3.98047 115.757 3.83008 115.435 3.5293C115.119 3.22852 114.962 2.8418 114.962 2.36914ZM120.344 11.0811C120.344 9.92806 120.566 8.90039 121.01 7.99805C121.454 7.0957 122.091 6.39746 122.922 5.90332C123.76 5.40918 124.73 5.16211 125.833 5.16211C127.401 5.16211 128.68 5.64193 129.668 6.60156C130.663 7.5612 131.218 8.86458 131.333 10.5117L131.354 11.3066C131.354 13.0898 130.857 14.5221 129.861 15.6035C128.866 16.6777 127.53 17.2148 125.854 17.2148C124.179 17.2148 122.84 16.6777 121.837 15.6035C120.841 14.5293 120.344 13.0684 120.344 11.2207V11.0811ZM123.448 11.3066C123.448 12.4095 123.656 13.2546 124.071 13.8418C124.487 14.4219 125.081 14.7119 125.854 14.7119C126.606 14.7119 127.194 14.4255 127.616 13.8525C128.039 13.2725 128.25 12.3486 128.25 11.0811C128.25 9.99967 128.039 9.16178 127.616 8.56738C127.194 7.97298 126.599 7.67578 125.833 7.67578C125.074 7.67578 124.487 7.97298 124.071 8.56738C123.656 9.15462 123.448 10.0677 123.448 11.3066ZM139.562 13.7881C139.562 13.4085 139.372 13.1113 138.992 12.8965C138.62 12.6745 138.018 12.4775 137.188 12.3057C134.423 11.7256 133.041 10.5511 133.041 8.78223C133.041 7.75098 133.467 6.8916 134.319 6.2041C135.179 5.50944 136.299 5.16211 137.682 5.16211C139.157 5.16211 140.335 5.50944 141.216 6.2041C142.104 6.89876 142.548 7.80111 142.548 8.91113H139.443C139.443 8.46712 139.3 8.10189 139.014 7.81543C138.727 7.52181 138.28 7.375 137.671 7.375C137.148 7.375 136.743 7.49316 136.457 7.72949C136.171 7.96582 136.027 8.2666 136.027 8.63184C136.027 8.97559 136.188 9.25488 136.511 9.46973C136.84 9.67741 137.392 9.86003 138.165 10.0176C138.938 10.168 139.59 10.3398 140.12 10.5332C141.76 11.1348 142.58 12.1768 142.58 13.6592C142.58 14.7191 142.125 15.5785 141.216 16.2373C140.306 16.889 139.132 17.2148 137.692 17.2148C136.718 17.2148 135.852 17.043 135.093 16.6992C134.341 16.3483 133.75 15.8721 133.32 15.2705C132.891 14.6618 132.676 14.0065 132.676 13.3047H135.619C135.648 13.8561 135.852 14.2786 136.231 14.5723C136.611 14.8659 137.119 15.0127 137.757 15.0127C138.351 15.0127 138.799 14.9017 139.1 14.6797C139.408 14.4505 139.562 14.1533 139.562 13.7881Z" fill="black"/>
</svg>
