<svg width="156" height="22" viewBox="0 0 156 22" fill="none" xmlns="http://www.w3.org/2000/svg">
<path d="M6.16602 17C11.041 17 13.9941 13.9844 13.9941 8.98437C13.9941 4 11.041 1 6.21289 1H0.494141V17H6.16602ZM3.87695 14.1016V3.89844H6.0332C9.0332 3.89844 10.6191 5.42969 10.6191 8.98437C10.6191 12.5547 9.0332 14.1016 6.02539 14.1016H3.87695ZM16.4375 17H19.7656V5H16.4375V17ZM18.1094 3.45312C19.1016 3.45312 19.9141 2.69531 19.9141 1.76562C19.9141 0.84375 19.1016 0.0859367 18.1094 0.0859367C17.125 0.0859367 16.3125 0.84375 16.3125 1.76562C16.3125 2.69531 17.125 3.45312 18.1094 3.45312ZM27.8379 21.75C31.2676 21.75 33.7051 20.1875 33.7051 17.1172V5H30.4004V7.01562H30.2754C29.8301 6.03906 28.8535 4.84375 26.8457 4.84375C24.2129 4.84375 21.9863 6.89062 21.9863 10.9766C21.9863 14.9687 24.1504 16.8281 26.8535 16.8281C28.7676 16.8281 29.8379 15.8672 30.2754 14.875H30.416V17.0703C30.416 18.7188 29.3613 19.3594 27.916 19.3594C26.4473 19.3594 25.7051 18.7188 25.4316 17.9922L22.3535 18.4062C22.752 20.2969 24.6035 21.75 27.8379 21.75ZM27.9082 14.3281C26.2754 14.3281 25.3848 13.0312 25.3848 10.9609C25.3848 8.92188 26.2598 7.49219 27.9082 7.49219C29.5254 7.49219 30.4316 8.85938 30.4316 10.9609C30.4316 13.0781 29.5098 14.3281 27.9082 14.3281ZM36.3535 17H39.6816V5H36.3535V17ZM38.0254 3.45312C39.0176 3.45312 39.8301 2.69531 39.8301 1.76562C39.8301 0.84375 39.0176 0.0859367 38.0254 0.0859367C37.041 0.0859367 36.2285 0.84375 36.2285 1.76562C36.2285 2.69531 37.041 3.45312 38.0254 3.45312ZM48.7305 5H46.4727V2.125H43.1445V5H41.5039V7.5H43.1445V13.75C43.1289 16.1016 44.7305 17.2656 47.1445 17.1641C48.0039 17.1328 48.6133 16.9609 48.9492 16.8516L48.4258 14.375C48.2617 14.4062 47.9102 14.4844 47.5977 14.4844C46.9336 14.4844 46.4727 14.2344 46.4727 13.3125V7.5H48.7305V5ZM54.3203 17.2266C56.0938 17.2266 57.2422 16.4531 57.8281 15.3359H57.9219V17H61.0781V8.90625C61.0781 6.04687 58.6563 4.84375 55.9844 4.84375C53.1094 4.84375 51.2187 6.21875 50.7578 8.40625L53.8359 8.65625C54.0625 7.85937 54.7734 7.27344 55.9687 7.27344C57.1016 7.27344 57.75 7.84375 57.75 8.82812V8.875C57.75 9.64844 56.9297 9.75 54.8438 9.95312C52.4687 10.1719 50.3359 10.9687 50.3359 13.6484C50.3359 16.0234 52.0313 17.2266 54.3203 17.2266ZM55.2734 14.9297C54.25 14.9297 53.5156 14.4531 53.5156 13.5391C53.5156 12.6016 54.2891 12.1406 55.4609 11.9766C56.1875 11.875 57.375 11.7031 57.7734 11.4375V12.7109C57.7734 13.9687 56.7344 14.9297 55.2734 14.9297ZM66.9883 1H63.6602V17H66.9883V1Z" fill="#FFE600"/>
<path d="M83.4883 5.60156H86.7305C86.6836 2.75 84.3398 0.781249 80.7773 0.781249C77.2695 0.781249 74.6992 2.71875 74.7148 5.625C74.707 7.98437 76.3711 9.33594 79.0742 9.98437L80.8164 10.4219C82.5586 10.8437 83.5273 11.3437 83.5352 12.4219C83.5273 13.5937 82.418 14.3906 80.6992 14.3906C78.9414 14.3906 77.6758 13.5781 77.5664 11.9766H74.293C74.3789 15.4375 76.8555 17.2266 80.7383 17.2266C84.6445 17.2266 86.9414 15.3594 86.9492 12.4297C86.9414 9.76562 84.9336 8.35156 82.1523 7.72656L80.7148 7.38281C79.3242 7.0625 78.1602 6.54687 78.1836 5.39844C78.1836 4.36719 79.0977 3.60937 80.7539 3.60937C82.3711 3.60937 83.3633 4.34375 83.4883 5.60156ZM95.5449 5H93.2871V2.125H89.959V5H88.3184V7.5H89.959V13.75C89.9434 16.1016 91.5449 17.2656 93.959 17.1641C94.8184 17.1328 95.4277 16.9609 95.7637 16.8516L95.2402 14.375C95.0762 14.4062 94.7246 14.4844 94.4121 14.4844C93.748 14.4844 93.2871 14.2344 93.2871 13.3125V7.5H95.5449V5ZM105.408 11.8906C105.416 13.5 104.314 14.3437 103.119 14.3437C101.861 14.3437 101.049 13.4609 101.041 12.0469V5H97.7129V12.6406C97.7207 15.4453 99.3613 17.1563 101.775 17.1563C103.58 17.1563 104.877 16.2266 105.416 14.8203H105.541V17H108.736V5H105.408V11.8906ZM115.82 17.1953C117.758 17.1953 118.766 16.0781 119.227 15.0781H119.367V17H122.648V1H119.328V7.01562H119.227C118.781 6.03906 117.82 4.84375 115.813 4.84375C113.18 4.84375 110.953 6.89062 110.953 11.0156C110.953 15.0312 113.086 17.1953 115.82 17.1953ZM116.875 14.5469C115.242 14.5469 114.352 13.0937 114.352 11C114.352 8.92188 115.227 7.49219 116.875 7.49219C118.492 7.49219 119.398 8.85938 119.398 11C119.398 13.1406 118.477 14.5469 116.875 14.5469ZM125.385 17H128.713V5H125.385V17ZM127.057 3.45312C128.049 3.45312 128.861 2.69531 128.861 1.76562C128.861 0.84375 128.049 0.0859367 127.057 0.0859367C126.072 0.0859367 125.26 0.84375 125.26 1.76562C125.26 2.69531 126.072 3.45312 127.057 3.45312ZM136.801 17.2344C140.441 17.2344 142.707 14.7422 142.707 11.0469C142.707 7.32812 140.441 4.84375 136.801 4.84375C133.16 4.84375 130.895 7.32812 130.895 11.0469C130.895 14.7422 133.16 17.2344 136.801 17.2344ZM136.816 14.6562C135.137 14.6562 134.277 13.1172 134.277 11.0234C134.277 8.92969 135.137 7.38281 136.816 7.38281C138.465 7.38281 139.324 8.92969 139.324 11.0234C139.324 13.1172 138.465 14.6562 136.816 14.6562ZM154.855 8.42187C154.559 6.21094 152.777 4.84375 149.746 4.84375C146.676 4.84375 144.652 6.26562 144.66 8.57812C144.652 10.375 145.785 11.5391 148.129 12.0078L150.207 12.4219C151.254 12.6328 151.73 13.0156 151.746 13.6172C151.73 14.3281 150.957 14.8359 149.793 14.8359C148.605 14.8359 147.816 14.3281 147.613 13.3516L144.34 13.5234C144.652 15.8203 146.605 17.2344 149.785 17.2344C152.895 17.2344 155.121 15.6484 155.129 13.2812C155.121 11.5469 153.988 10.5078 151.66 10.0312L149.488 9.59375C148.371 9.35156 147.957 8.96875 147.965 8.39062C147.957 7.67187 148.77 7.20312 149.801 7.20312C150.957 7.20312 151.645 7.83594 151.809 8.60937L154.855 8.42187Z" fill="white"/>
</svg>
