<svg width="100" height="100" viewBox="0 0 100 100" fill="none" xmlns="http://www.w3.org/2000/svg">
<circle cx="50" cy="50" r="50" fill="#BED3FF"/>
<path d="M41.0002 41.7275C42.5296 41.7275 43.7694 40.4926 43.7694 38.9692C43.7694 37.4459 42.5296 36.2109 41.0002 36.2109C39.4708 36.2109 38.231 37.4459 38.231 38.9692C38.231 40.4926 39.4708 41.7275 41.0002 41.7275Z" fill="#2555BB"/>
<path d="M58.3075 45.1754C56.6556 45.1774 55.0719 45.8319 53.9039 46.9954C52.7358 48.1588 52.0787 49.7362 52.0767 51.3816V61.3804C52.0767 62.7521 51.5297 64.0675 50.5559 65.0374C49.5822 66.0073 48.2615 66.5522 46.8844 66.5522C45.5073 66.5522 44.1866 66.0073 43.2129 65.0374C42.2391 64.0675 41.6921 62.7521 41.6921 61.3804V58.0477L45.1536 56.8982V55.519H36.8459V56.8982L40.3075 58.0477V61.3804C40.3075 63.1178 41.0004 64.7841 42.2338 66.0126C43.4672 67.2412 45.1401 67.9314 46.8844 67.9314C48.6287 67.9314 50.3016 67.2412 51.535 66.0126C52.7684 64.7841 53.4613 63.1178 53.4613 61.3804V51.3816C53.4613 50.1014 53.9719 48.8736 54.8807 47.9684C55.7895 47.0631 57.0222 46.5546 58.3075 46.5546C59.5927 46.5546 60.8254 47.0631 61.7342 47.9684C62.643 48.8736 63.1536 50.1014 63.1536 51.3816V56.2707C63.6114 56.1879 64.0804 56.1879 64.5382 56.2707V51.3816C64.5362 49.7362 63.8791 48.1588 62.7111 46.9954C61.543 45.8319 59.9593 45.1774 58.3075 45.1754Z" fill="#2555BB"/>
<path d="M64.5385 56.2705V61.0355H68.0001V60.3459C67.9991 59.3689 67.651 58.4237 67.0174 57.6778C66.3839 56.9319 65.5057 56.4333 64.5385 56.2705Z" fill="#2555BB"/>
<path d="M59.692 65.8625C59.692 66.9599 60.1296 68.0122 60.9086 68.7882C61.6876 69.5641 62.7441 70 63.8458 70C64.9475 70 66.004 69.5641 66.783 68.7882C67.562 68.0122 67.9996 66.9599 67.9996 65.8625V62.4147H59.692V65.8625Z" fill="#2555BB"/>
<path d="M59.692 60.3459V61.0355H63.1535V56.2705C62.1863 56.4333 61.3082 56.9319 60.6746 57.6778C60.041 58.4237 59.6929 59.3689 59.692 60.3459Z" fill="#2555BB"/>
<path d="M45.1536 52.7607H36.8459V54.1399H45.1536V52.7607Z" fill="#2555BB"/>
<path d="M36.8461 50.0023V51.3815H40.3077V43.0445C39.2807 42.8716 38.3564 42.3207 37.718 41.501C37.0796 40.6814 36.7736 39.6527 36.8607 38.6189C36.9478 37.5851 37.4216 36.6217 38.1883 35.9194C38.9549 35.2172 39.9585 34.8275 41 34.8275C42.0415 34.8275 43.0451 35.2172 43.8117 35.9194C44.5784 36.6217 45.0522 37.5851 45.1393 38.6189C45.2264 39.6527 44.9204 40.6814 44.282 41.501C43.6435 42.3207 42.7193 42.8716 41.6923 43.0445V51.3815H45.1538V49.2362C45.1447 48.6071 45.2759 47.9838 45.5381 47.4113C45.8003 46.8389 46.1869 46.3317 46.67 45.9262C48.1142 44.7592 49.1601 43.1753 49.6637 41.3921C50.1673 39.609 50.104 37.7142 49.4824 35.9684C48.8609 34.2225 47.7116 32.7113 46.1927 31.6426C44.6737 30.5738 42.8597 30 41 30C39.1403 30 37.3262 30.5738 35.8073 31.6426C34.2884 32.7113 33.1391 34.2225 32.5175 35.9684C31.896 37.7142 31.8327 39.609 32.3363 41.3921C32.8399 43.1753 33.8858 44.7592 35.33 45.9262C35.8131 46.3317 36.1996 46.8389 36.4619 47.4113C36.7241 47.9838 36.8553 48.6071 36.8461 49.2362V50.0023Z" fill="#2555BB"/>
</svg>
